<?xml version="1.0" encoding="utf-8"?>
<!-- Generator: Adobe Illustrator 22.1.0, SVG Export Plug-In . SVG Version: 6.00 Build 0)  -->
<svg version="1.1" id="Camada_1" xmlns="http://www.w3.org/2000/svg" xmlns:xlink="http://www.w3.org/1999/xlink" x="0px" y="0px"
	 viewBox="0 0 98 120" style="enable-background:new 0 0 98 120;" xml:space="preserve">
<style type="text/css">
	.st0{fill:#FFFF00;}
</style>
<rect class="st0" width="98" height="120"/>
<g>
	<path d="M20.9,38.1v10.8h21.5c5.2,0,9.5-1.6,12.7-4.8s4.8-7.2,4.8-12c0-1.5-0.1-2.8-0.4-4.1c-3.4-0.9-6.9-1.4-10.6-1.4
		C38.1,26.6,28.2,31,20.9,38.1z"/>
	<path d="M58.2,44.3c-2.9,3.5-6.6,5.6-11,6.5l28.6,45.6C83.9,89,89,78.4,89,66.6c0-17.4-11.2-32.3-26.7-37.7c0.1,1,0.2,2.1,0.2,3.3
		C62.5,36.7,61.1,40.8,58.2,44.3z"/>
	<path d="M20.9,51.4v43.6c7.2,7.1,17.1,11.5,28.1,11.5c9.3,0,17.9-3.2,24.7-8.6L44.6,51.4H20.9z"/>
	<path d="M9,66.6c0,9.8,3.5,18.8,9.4,25.8V40.8C12.5,47.8,9,56.7,9,66.6z"/>
	<path d="M73.7,98l6,9.6h2.7v-0.7l-6.6-10.6C75.1,96.9,74.4,97.5,73.7,98z"/>
	<path d="M18.4,92.3v14.2h2.5V95.1C20.1,94.2,19.2,93.3,18.4,92.3z"/>
	<path d="M20.9,38.1V14.9h19c6.2,0,11.1,1.5,14.7,4.6c2.6,2.2,4.2,5,4.9,8.5c0.9,0.3,1.8,0.5,2.7,0.8c-0.6-4.5-2.5-8.3-5.8-11.1
		c-4-3.5-9.5-5.3-16.3-5.3H18.4v28.4C19.2,39.9,20.1,38.9,20.9,38.1z"/>
</g>
</svg>
